<?xml version="1.0" encoding="UTF-8"?>
<svg  viewBox="0 0 121 142" version="1.1" xmlns="http://www.w3.org/2000/svg" xmlns:xlink="http://www.w3.org/1999/xlink">
    <!-- Generator: sketchtool 63.1 (101010) - https://sketch.com -->
    <title>7DAA1722-76D2-4E74-9BB8-088FEFB867FB</title>
    <desc>Created with sketchtool.</desc>
    <defs>
        <filter x="-73.5%" y="-73.5%" width="246.9%" height="246.9%" filterUnits="objectBoundingBox" id="filter-1">
            <feOffset dx="0" dy="11" in="SourceAlpha" result="shadowOffsetOuter1"></feOffset>
            <feGaussianBlur stdDeviation="10" in="shadowOffsetOuter1" result="shadowBlurOuter1"></feGaussianBlur>
            <feColorMatrix values="0 0 0 0 1   0 0 0 0 0.91372549   0 0 0 0 0  0 0 0 0.360705389 0" type="matrix" in="shadowBlurOuter1" result="shadowMatrixOuter1"></feColorMatrix>
            <feMerge>
                <feMergeNode in="shadowMatrixOuter1"></feMergeNode>
                <feMergeNode in="SourceGraphic"></feMergeNode>
            </feMerge>
        </filter>
        <linearGradient x1="-1.11022302e-14%" y1="1.72254642e-14%" x2="100%" y2="100%" id="linearGradient-2">
            <stop stop-color="#FFEE00" offset="0%"></stop>
            <stop stop-color="#FFCE00" offset="100%"></stop>
        </linearGradient>
        <path d="M46.4395607,32.2223432 L46.4820037,45.2425629 C46.5031723,45.9256252 45.9422046,46.4825838 45.2542253,46.4825838 L32.2355412,46.4825838 C31.1347744,46.4825838 30.5738067,45.1584936 31.3464603,44.3808534 L44.312223,31.3606337 C45.0954609,30.5724848 46.4395607,31.1189347 46.4395607,32.2223432 Z M44.5481662,1.93402821 C47.1273896,4.51261939 47.1273896,8.68575255 44.5481662,11.2531472 L11.2558216,44.5486404 C8.68791052,47.1272316 4.50232863,47.1272316 1.93441758,44.5486404 C-0.644805859,41.9699361 -0.644805859,37.796803 1.93441758,35.2182118 L35.2267622,1.93402821 C37.8059856,-0.64467607 41.9802552,-0.64467607 44.5481662,1.93402821 Z M14.2478474,0 C15.3479039,0 15.9085096,1.32409014 15.1363545,2.10173038 L2.16838063,15.1219501 C1.38564811,15.9100989 0.042309866,15.3636491 0.042309866,14.2602406 L0,1.24002092 C0,0.55695855 0.550028258,0 1.24814105,0 L14.2478474,0 Z" id="path-3"></path>
        <filter x="-30.1%" y="-21.5%" width="160.2%" height="160.2%" filterUnits="objectBoundingBox" id="filter-4">
            <feOffset dx="0" dy="4" in="SourceAlpha" result="shadowOffsetOuter1"></feOffset>
            <feGaussianBlur stdDeviation="4" in="shadowOffsetOuter1" result="shadowBlurOuter1"></feGaussianBlur>
            <feColorMatrix values="0 0 0 0 0.968085672   0 0 0 0 0.793450609   0 0 0 0 0  0 0 0 1 0" type="matrix" in="shadowBlurOuter1"></feColorMatrix>
        </filter>
    </defs>
    <g id="Archives-(-UnUsed-)" stroke="none" stroke-width="1" fill="none" fill-rule="evenodd">
        <g id="Desktop-HD-Copy-21" transform="translate(-659.000000, -277.000000)">
            <g id="Group-11" transform="translate(560.000000, 286.000000)">
                <g id="Group-9" transform="translate(109.000000, 0.000000)">
                    <g id="Group-2" transform="translate(0.000000, 102.750000)" fill="#424242">
                        <path d="M98.9185424,12.9726562 C100.206233,12.9726562 101.25,14.0063815 101.25,15.2808182 L101.25,15.2808182 L101.25,27.691838 C101.25,28.9662747 100.206233,30 98.9185424,30 C97.6308517,30 96.5870848,28.9662747 96.5870848,27.691838 L96.5870848,27.691838 L96.5870848,15.2808182 C96.5870848,14.0063815 97.6308517,12.9726562 98.9185424,12.9726562 Z M88.5932625,12.9726562 C89.8809532,12.9726562 90.9247201,14.0063815 90.9247201,15.2808182 L90.9247201,15.2808182 L90.9247201,27.691838 C90.9247201,28.9662747 89.8809532,30 88.5932625,30 C87.3055718,30 86.2618049,28.9662747 86.2618049,27.691838 L86.2618049,27.691838 L86.2618049,15.2808182 C86.2618049,14.0063815 87.3055718,12.9726562 88.5932625,12.9726562 Z M17.5993851,0 C18.8743124,0 19.915243,1.0147772 19.9301337,2.28009067 C20.0295542,10.4297776 20.0818809,14.7199264 20.0871135,15.1505369 L20.0875496,19.9551795 C20.0875496,25.4901364 15.5820503,29.9934734 10.0441293,29.9934734 C4.50549932,29.9934734 0,25.4901364 0,19.9551795 L0,19.9551795 L0,15.4564542 C0,14.1820176 1.04305784,13.1482923 2.33145762,13.1482923 C3.61914833,13.1482923 4.66291525,14.1820176 4.66291525,15.4564542 L4.66291525,15.4564542 L4.66291525,19.9551795 C4.66291525,22.9447721 7.07662625,25.3778513 10.0441293,25.3778513 C13.0102143,25.3778513 15.4246343,22.9447721 15.4246343,19.9551795 L15.4246343,19.9551795 L15.4246343,15.3079772 L15.2672184,2.33553147 C15.2516186,1.06109483 16.2826221,0.0154392104 17.5993851,0 Z M64.8602577,9.61954043 C66.1486575,9.61954043 67.1917153,10.652564 67.1917153,11.9270006 L67.1917153,11.9270006 L67.1917153,12.9726562 L77.2994593,12.9726562 C78.58715,12.9726562 79.6309169,14.0063815 79.6309169,15.2808182 C79.6309169,16.554553 78.58715,17.5882784 77.2994593,17.5882784 L77.2994593,17.5882784 L67.1917153,17.5882784 L67.1917153,19.5651991 C67.1917153,25.3149014 62.4649828,29.9929822 56.6554839,29.9929822 C50.845985,29.9929822 46.1192525,25.3149014 46.1192525,19.5651991 L46.1192525,19.5651991 L46.1192525,15.455963 C46.1192525,14.1815263 47.1623103,13.1485028 48.4507101,13.1485028 C49.7384008,13.1485028 50.7821678,14.1815263 50.7821678,15.455963 L50.7821678,15.455963 L50.7821678,19.5651991 C50.7821678,22.7702388 53.417112,25.37736 56.6554839,25.37736 C59.8938559,25.37736 62.5288001,22.7702388 62.5288001,19.5651991 L62.5288001,19.5651991 L62.5288001,11.9270006 C62.5288001,10.652564 63.572567,9.61954043 64.8602577,9.61954043 Z M31.8658474,25.4629775 C32.1494797,25.4068349 32.4409119,25.4068349 32.7238352,25.4629775 C32.8656513,25.4910488 33.0010858,25.5331557 33.135102,25.5892983 C33.2634456,25.6454409 33.3903711,25.7086013 33.5109148,25.7857973 C33.6314586,25.8700112 33.7449115,25.9612429 33.8441828,26.0594924 C33.9441632,26.1577419 34.0363437,26.2700271 34.1214334,26.3893301 C34.1987232,26.5086331 34.2625405,26.6349539 34.3192669,26.7612747 C34.3759934,26.8946134 34.4114474,27.027952 34.4398107,27.1683084 C34.4681739,27.3086649 34.4894463,27.4490214 34.4894463,27.5893778 C34.4894463,27.7297343 34.4681739,27.8771086 34.4398107,28.017465 C34.4114474,28.1508037 34.3759934,28.2911601 34.3192669,28.4174809 C34.2625405,28.5508196 34.1987232,28.6771404 34.1214334,28.7964434 C34.0363437,28.9157464 33.9441632,29.0210137 33.8441828,29.126281 C33.7449115,29.2245306 33.6314586,29.3157623 33.5109148,29.3929583 C33.3903711,29.4701544 33.2634456,29.5403326 33.135102,29.5964752 C33.0010858,29.6455999 32.8656513,29.6877069 32.7238352,29.7157782 C32.582019,29.7438495 32.4409119,29.7578851 32.2983867,29.7578851 C32.1565705,29.7578851 32.0076636,29.7438495 31.8658474,29.7157782 C31.7318311,29.6877069 31.5893059,29.6455999 31.4623805,29.5964752 C31.326946,29.5403326 31.2000206,29.4701544 31.0794768,29.3929583 C30.9589331,29.3157623 30.8454802,29.2245306 30.7454998,29.126281 C30.6462285,29.0210137 30.554048,28.9157464 30.4760491,28.7964434 C30.3987593,28.6771404 30.3271421,28.5508196 30.2704156,28.4174809 C30.2214891,28.2911601 30.1782351,28.1508037 30.1498719,28.017465 C30.1215087,27.8771086 30.1080361,27.7297343 30.1080361,27.5893778 C30.1080361,27.4490214 30.1215087,27.3086649 30.1498719,27.1683084 C30.1782351,27.027952 30.2214891,26.8946134 30.2704156,26.7612747 C30.3271421,26.6349539 30.3987593,26.5086331 30.4760491,26.3893301 C30.554048,26.2700271 30.6462285,26.1577419 30.7454998,26.0594924 C30.8454802,25.9612429 30.9589331,25.8700112 31.0794768,25.7857973 C31.2000206,25.7086013 31.326946,25.6454409 31.4545806,25.5892983 C31.5893059,25.5331557 31.7318311,25.4910488 31.8658474,25.4629775 Z M78.1908752,21.4060442 C79.199188,21.4060442 80.0160491,22.2151992 80.0160491,23.2131336 C80.0160491,24.211068 79.199188,25.0195212 78.1908752,25.0195212 L78.1908752,25.0195212 L71.9204738,25.0195212 C70.9121609,25.0195212 70.0952998,24.211068 70.0952998,23.2131336 C70.0952998,22.2151992 70.9121609,21.4060442 71.9204738,21.4060442 L71.9204738,21.4060442 Z M35.4320983,20.682647 C36.4404112,20.682647 37.2572723,21.491802 37.2572723,22.4897364 C37.2572723,23.4876709 36.4404112,24.2961241 35.4320983,24.2961241 L35.4320983,24.2961241 L29.1616969,24.2961241 C28.1533841,24.2961241 27.336523,23.4876709 27.336523,22.4897364 C27.336523,21.491802 28.1533841,20.682647 29.1616969,20.682647 L29.1616969,20.682647 Z M26.5107579,0.000210534688 C27.7856851,0.000210534688 28.8259067,1.01498773 28.8415064,2.2803012 L28.8415064,2.2803012 L28.9705591,12.9726562 L37.4247268,12.9726562 C38.7124175,12.9726562 39.7561844,14.0063815 39.7561844,15.2808182 C39.7561844,16.554553 38.7124175,17.5882784 37.4247268,17.5882784 L37.4247268,17.5882784 L26.6660466,17.5882784 C26.5065034,17.5882784 26.3497966,17.5721374 26.1987623,17.5419607 C26.1576357,17.5335393 26.1207635,17.5159948 26.0803459,17.5054681 C25.9725656,17.4773968 25.8640762,17.4500273 25.7626777,17.4079203 C25.713042,17.3875686 25.669079,17.3566902 25.6208615,17.3321278 C25.5350627,17.2893191 25.4471367,17.2493175 25.3677197,17.1966838 C25.3209203,17.1658054 25.2812118,17.1251021 25.2372488,17.0914165 C25.1642135,17.0345721 25.0890509,16.9805349 25.0231064,16.9166727 C24.9833979,16.8773729 24.9529074,16.8317571 24.9167443,16.7903519 C24.8557633,16.7208755 24.791237,16.6535043 24.738765,16.5763083 C24.7068564,16.5299907 24.6848749,16.4780588 24.6565116,16.4296358 C24.6097123,16.3496326 24.5600767,16.2724366 24.5232044,16.1868191 C24.4990957,16.1306765 24.4856232,16.0696215 24.466478,16.0113736 C24.4374057,15.9271597 24.404788,15.8450511 24.3863519,15.7566266 C24.3721702,15.6913608 24.3714612,15.6218844 24.3629522,15.5552151 C24.3537341,15.4731065 24.3360071,15.3931034 24.335298,15.3081877 L24.335298,15.3081877 L24.1785912,2.33574201 C24.1629914,1.06130536 25.1939949,0.0156497451 26.5107579,0.000210534688 Z M55.1077024,13.7501608 C55.9160545,12.9431112 57.3909425,12.9360934 58.2063854,13.7501608 C58.6105615,14.1501767 58.8445581,14.7116026 58.8445581,15.2800462 C58.8445581,15.8484899 58.6105615,16.4099157 58.2063854,16.8169494 C57.7951185,17.2169654 57.2349447,17.4485535 56.6534985,17.4485535 C56.079143,17.4485535 55.5118784,17.2169654 55.1077024,16.8169494 C54.6964355,16.4099157 54.4624389,15.8484899 54.4624389,15.2800462 C54.4624389,14.7116026 54.6964355,14.1501767 55.1077024,13.7501608 Z M97.3686336,6.50074974 C97.8791718,5.99546649 98.6378882,5.76387833 99.346969,5.90423479 C99.4894942,5.93230608 99.6235105,5.97441302 99.7582358,6.0305556 C99.8858704,6.08669818 100.014214,6.14985859 100.134758,6.22705464 C100.255301,6.31126852 100.368754,6.40250022 100.467317,6.50074974 C100.872202,6.90076564 101.106198,7.46219148 101.106198,8.03063514 C101.106198,8.60609662 100.872202,9.16050463 100.467317,9.56753836 C100.368754,9.66578788 100.255301,9.75701958 100.134758,9.83421563 C100.014214,9.91141168 99.8858704,9.98158991 99.7582358,10.0377325 C99.6235105,10.0868573 99.4824034,10.1289642 99.346969,10.1570355 C99.2051528,10.1851068 99.0562459,10.1991424 98.9144297,10.1991424 C98.3400743,10.1991424 97.7735187,9.96755427 97.3686336,9.56753836 C96.9644575,9.16050463 96.7233701,8.59907879 96.7233701,8.03063514 C96.7233701,7.46219148 96.9644575,6.90076564 97.3686336,6.50074974 Z" id="Combined-Shape"></path>
                    </g>
                    <g id="Group" filter="url(#filter-1)" transform="translate(10.500000, 0.000000)">
                        <path d="M23.3535708,-9.43512212e-16 L56.8964292,9.43512212e-16 C65.0169745,-5.48207766e-16 67.9616805,0.845517374 70.9304305,2.43322225 C73.8991805,4.02092712 76.2290729,6.3508195 77.8167778,9.3195695 C79.4044826,12.2883195 80.25,15.2330255 80.25,23.3535708 L80.25,56.8964292 C80.25,65.0169745 79.4044826,67.9616805 77.8167778,70.9304305 C76.2290729,73.8991805 73.8991805,76.2290729 70.9304305,77.8167778 C67.9616805,79.4044826 65.0169745,80.25 56.8964292,80.25 L23.3535708,80.25 C15.2330255,80.25 12.2883195,79.4044826 9.3195695,77.8167778 C6.3508195,76.2290729 4.02092712,73.8991805 2.43322225,70.9304305 C0.845517374,67.9616805 3.65471844e-16,65.0169745 -6.29008141e-16,56.8964292 L6.29008141e-16,23.3535708 C-3.65471844e-16,15.2330255 0.845517374,12.2883195 2.43322225,9.3195695 C4.02092712,6.3508195 6.3508195,4.02092712 9.3195695,2.43322225 C12.2883195,0.845517374 15.2330255,5.48207766e-16 23.3535708,-9.43512212e-16 Z" id="Rectangle-3" fill="url(#linearGradient-2)"></path>
                        <g id="Group-2" transform="translate(16.870739, 16.870739)">
                            <g id="Combined-Shape">
                                <use fill="black" fill-opacity="1" filter="url(#filter-4)" xlink:href="#path-3"></use>
                                <use fill="#FFFFFF" fill-rule="evenodd" xlink:href="#path-3"></use>
                            </g>
                        </g>
                    </g>
                </g>
            </g>
        </g>
    </g>
</svg>
